<?xml version="1.0" encoding="UTF-8"?>
<svg width="14" height="21" fill="none" version="1.1" viewBox="0 0 14 21" xmlns="http://www.w3.org/2000/svg">
    <path d="m 4,0 -0.707031,0.29296875 -3,3.00000005 L 0,4 V 7.5 L 0.292969,8.2070312 2.585938,10.5 0.292969,12.792969 0,13.5 V 17 l 0.292969,0.707031 3,3 L 4,21 h 6 l 0.707031,-0.292969 3,-3 L 14,17 V 13.5 L 13.707031,12.792969 11.414062,10.5 13.707031,8.2070312 14,7.5 V 4 l -0.292969,-0.7070312 -3,-3.00000005 L 10,0 Z M 4.414062,2 H 9.585938 L 12,4.4140625 v 2.671875 L 9.585938,9.5 H 4.414062 L 2,7.0859375 v -2.671875 z m 0,9.5 H 9.585938 L 12,13.914062 v 2.671876 L 9.585938,19 H 4.414062 L 2,16.585938 v -2.671876 z" fill="#000"/>
</svg>
