<?xml version="1.0" encoding="UTF-8"?>
<svg width="14" height="21" fill="none" version="1.1" viewBox="0 0 14 21" xmlns="http://www.w3.org/2000/svg">
    <path d="m 4,0 -0.707031,0.29296875 -3,3.00000005 L 0,4 v 3.5 l 0.292969,0.7070313 3,2.9999997 L 4,11.5 h 6 L 10.707031,11.207031 12,9.9140625 V 16.585937 L 9.585937,19 H 4.414062 l -2.707031,-2.707031 -1.414062,1.414062 3,3 L 4,21 h 6 l 0.707031,-0.292969 3,-3 L 14,17 V 4 l -0.292969,-0.7070312 -3,-3.00000005 L 10,0 Z M 4.414062,2 H 9.585937 L 12,4.4140625 v 2.671875 L 9.585937,9.5 H 4.414062 L 2,7.0859375 v -2.671875 z" fill="#000"/>
</svg>
