<?xml version="1.0" encoding="UTF-8"?>
<svg width="13" height="21" fill="none" version="1.1" viewBox="0 0 13 21" xmlns="http://www.w3.org/2000/svg">
    <path d="m 3.5,0 -0.353516,0.14648437 -3,3.00000003 L 0,3.5 v 4 l 0.146484,0.3535156 3,3.0000004 L 3.5,11 h 6 L 9.853516,10.853516 12,8.7070313 V 17.292969 L 9.292969,20 H 3.707031 l -2.853515,-2.853516 -0.707032,0.707032 3,3 L 3.5,21 h 6 l 0.353516,-0.146484 3,-3 L 13,17.5 v -14 l -0.146484,-0.3535156 -3,-3.00000003 L 9.5,0 Z M 3.707031,1 H 9.292969 L 12,3.7070313 V 7.2929687 L 9.292969,10 H 3.707031 L 1,7.2929687 V 3.7070313 Z" fill="#000"/>
</svg>
