<?xml version="1.0" encoding="UTF-8"?>
<svg width="5" height="13" fill="none" version="1.1" viewBox="0 0 5 13" xmlns="http://www.w3.org/2000/svg">
    <path d="M 2.505859,0 C 1.132791,0 0,1.1328067 0,2.5058594 0,3.8789119 1.140952,5 2.505859,5 3.870768,5 5,3.8707753 5,2.5058594 5,1.1409434 3.878928,0 2.505859,0 Z m 0,2 C 2.789488,2 3,2.2140786 3,2.5058594 3,2.7976401 2.797648,3 2.505859,3 2.214071,3 2,2.7895035 2,2.5058594 2,2.2222153 2.222232,2 2.505859,2 Z m 0,6 C 1.132791,8 0,9.1328003 0,10.505859 0,11.878895 1.140944,13 2.505859,13 3.870776,13 5,11.870758 5,10.505859 5,9.1409367 3.878928,8 2.505859,8 Z m 0,2 C 2.789488,10 3,10.214046 3,10.505859 3,10.797558 2.79764,11 2.505859,11 2.214079,11 2,10.789421 2,10.505859 2,10.222183 2.222232,10 2.505859,10 Z" fill="#000"/>
</svg>
