<?xml version="1.0" encoding="UTF-8"?>
<svg width="4" height="12" fill="none" version="1.1" viewBox="0 0 4 12" xmlns="http://www.w3.org/2000/svg">
    <path d="M 2.005859,0 C 0.905209,0 0,0.9052172 0,2.0058594 0,3.1065016 0.909289,4 2.005859,4 3.10243,4 4,3.1024341 4,2.0058594 4,0.9092846 3.10651,0 2.005859,0 Z m 0,1 C 2.561906,1 3,1.4457374 3,2.0058594 3,2.5659813 2.565986,3 2.005859,3 1.445734,3 1,2.5619138 1,2.0058594 1,1.4498048 1.449813,1 2.005859,1 Z m 0,7 C 0.905209,8 0,8.9052042 0,10.005859 0,11.106468 0.909285,12 2.005859,12 3.102434,12 4,11.1024 4,10.005859 4,8.9092715 3.10651,8 2.005859,8 Z m 0,1 C 2.561906,9 3,9.445711 3,10.005859 3,10.565916 2.565982,11 2.005859,11 1.445738,11 1,10.561848 1,10.005859 1,9.449779 1.449813,9 2.005859,9 Z" fill="#000"/>
</svg>
