<?xml version="1.0" encoding="UTF-8"?>
<svg width="13.148438" height="21" fill="none" version="1.1" viewBox="0 0 13.148438 21" xmlns="http://www.w3.org/2000/svg">
    <path d="m12.289063 0-12.289063 20.484375 0.859375 0.515625 12.289063-20.484375zm-8.714844 0.5c-1.650928 0-3 1.3490713-3 3s1.349072 3 3 3 3-1.3490713 3-3-1.349072-3-3-3zm0 1c1.11049 0 2 0.8895089 2 2s-0.88951 2-2 2-2-0.8895089-2-2 0.88951-2 2-2zm6 13c-1.650928 0-3 1.349072-3 3s1.349072 3 3 3 3-1.349072 3-3-1.349072-3-3-3zm0 1c1.11049 0 2 0.889509 2 2s-0.88951 2-2 2-2-0.889509-2-2 0.88951-2 2-2z" fill="#000"/>
</svg>
