<?xml version="1.0" encoding="UTF-8"?>
<svg width="13.699218" height="21" fill="none" version="1.1" viewBox="0 0 13.699218 21" xmlns="http://www.w3.org/2000/svg">
    <path d="m3.849609 0c-1.921148 0-3.5 1.5788514-3.5 3.5s1.578852 3.5 3.5 3.5 3.5-1.5788514 3.5-3.5-1.578852-3.5-3.5-3.5zm8.134766 0-11.984375 19.972656 1.714843 1.027344 11.984375-19.9726562zm-8.134766 2c0.84027 0 1.5 0.6597288 1.5 1.5s-0.65973 1.5-1.5 1.5-1.5-0.6597288-1.5-1.5 0.65973-1.5 1.5-1.5zm6 12c-1.921148 0-3.5 1.578851-3.5 3.5s1.578852 3.5 3.5 3.5 3.5-1.578851 3.5-3.5-1.578852-3.5-3.5-3.5zm0 2c0.84027 0 1.5 0.659729 1.5 1.5s-0.65973 1.5-1.5 1.5-1.5-0.659729-1.5-1.5 0.65973-1.5 1.5-1.5z" fill="#000"/>
</svg>
