<?xml version="1.0" encoding="UTF-8"?>
<svg width="10.855468" height="21" fill="none" version="1.1" viewBox="0 0 10.855468 21" xmlns="http://www.w3.org/2000/svg">
    <path d="m3.353515 0-0.353515 0.14648438-3 3.00000002 0.708984 0.7070312 2.853516-2.8535156h3.583984l2.708984 2.7070312v3.6113282l-4.884765 5.8613286-0.117188 0.320312 2e-3 3h1l-2e-3 -2.818359 4.884766-5.8613285 0.117187-0.3203125v-4l-0.146484-0.3535156-3-3.00000002-0.355469-0.14648438zm1.998047 18c-0.822486 0-1.5 0.677498-1.5 1.5s0.677514 1.5 1.5 1.5 1.5-0.677498 1.5-1.5-0.677514-1.5-1.5-1.5zm0 1c0.282052 0 0.5 0.217904 0.5 0.5s-0.217948 0.5-0.5 0.5-0.5-0.217904-0.5-0.5 0.217948-0.5 0.5-0.5z" fill="#000"/>
</svg>
