<?xml version="1.0" encoding="UTF-8"?>
<svg width="14" height="21" fill="none" version="1.1" viewBox="0 0 14 21" xmlns="http://www.w3.org/2000/svg">
    <path d="m 4,0 -0.707031,0.29296875 -3,3.00000005 L 0,4 v 3.5 l 0.292969,0.7070313 3,2.9999997 L 4,11.5 H 9.585937 L 12,13.914063 v 2.671874 L 9.585937,19 H 4.414062 l -2.707031,-2.707031 -1.414062,1.414062 3,3 L 4,21 h 6 l 0.707031,-0.292969 3,-3 L 14,17 v -3.5 l -0.292969,-0.707031 -3,-3.0000002 L 10,9.5 H 4.414062 L 2,7.0859375 V 4.4140625 L 4.414062,2 h 5.171875 l 2.707032,2.7070312 1.414062,-1.4140624 -3,-3.00000005 L 10,0 Z" fill="#000"/>
</svg>
